PathFileType	4	(X/Y/Z)	Patient4_TMGait_0pt7_02_left_38.trc.trc
DataRate	CameraRate	NumFrames	NumMarkers	Units	OrigDataRate	OrigDataStartFrame	OrigNumFrames
86.956521739130	86.956521739130	4	33	mm	86.956521739130	89	       141
Frame#	Time	Sacral			L.Shoulder			Chest			R.Shoulder			Neck			R.ASIS			L.ASIS			R.Thigh.Superior			R.Thigh.Lateral			R.Thigh.Inferior			R.Patella			L.Thigh.Superior			L.Thigh.Lateral			L.Thigh.Inferior			L.Patella			L.Shank.Superior			L.Shank.Lateral			L.Shank.Inferior			R.Shank.Superior			R.Shank.Lateral			R.Shank.Inferior			R.Heel			R.Midfoot.Superior			R.Midfoot.Lateral			R.Toe			L.Heel			L.Midfoot.Lateral			L.Midfoot.Superior			L.Toe			L.Elbow			L.Wrist			R.Elbow			R.Wrist			
		X1	Y1	Z1	X2	Y2	Z2	X3	Y3	Z3	X4	Y4	Z4	X5	Y5	Z5	X6	Y6	Z6	X7	Y7	Z7	X8	Y8	Z8	X9	Y9	Z9	X10	Y10	Z10	X11	Y11	Z11	X12	Y12	Z12	X13	Y13	Z13	X14	Y14	Z14	X15	Y15	Z15	X16	Y16	Z16	X17	Y17	Z17	X18	Y18	Z18	X19	Y19	Z19	X20	Y20	Z20	X21	Y21	Z21	X22	Y22	Z22	X23	Y23	Z23	X24	Y24	Z24	X25	Y25	Z25	X26	Y26	Z26	X27	Y27	Z27	X28	Y28	Z28	X29	Y29	Z29	X30	Y30	Z30	X31	Y31	Z31	X32	Y32	Z32	X33	Y33	Z33	

89	44.492000000000	775.856364462049	1015.807568405265	504.892416269431	1021.254464061423	1408.240066224483	308.712612761182	1106.466569032845	1328.841520506689	476.470630068397	1032.774177160761	1424.702090061677	642.648755697176	1029.162442450990	1474.714185927348	460.212703082360	994.646582822584	926.811481973321	623.982943281826	981.894704266522	944.522763297464	347.308895632821	1057.999802223038	747.516639163179	595.488441486152	991.328575301952	631.604432420191	654.083406845899	1077.963617921000	589.924919437063	575.579010728203	1093.897089924928	499.650337682209	583.159348019145	1003.417495575174	727.976754955002	370.060135880604	903.427423371983	624.434650182677	302.935150279270	979.377272621785	529.402103387605	360.290875617738	963.786723656360	446.525502980747	358.257599247431	892.994022183167	396.051263312557	351.084135159524	754.070374428114	359.102631624613	294.229227577894	730.811902557086	232.620913491807	351.714089870701	1066.044433868584	409.464991981443	590.065249457910	997.633669152797	304.214295634021	652.564002554653	1042.208552493595	209.948708257692	590.143652373241	911.037969141959	44.716991462562	563.043638103353	1084.620726127488	98.919340989037	596.689413149541	995.442266168975	37.697554479588	635.294684397746	1203.860747415367	41.609659737263	621.220788004878	533.699969100919	174.006814460781	372.814631604376	598.255282034581	120.035169366838	304.893272084974	699.785866545010	129.718454229277	335.911114799093	777.847477398464	29.595244887585	330.194187941746	972.854372876204	1061.621978742235	197.360917513806	1218.799302902908	1008.625445974239	239.131599821088	879.042815226180	1116.410568745548	767.419681238258	857.629689952429	854.534952111298	757.516668391798	
90	44.503500000000	775.675314119328	1017.833117721497	507.761839541184	1020.344318535486	1410.385763682939	311.180888617836	1106.612511357196	1330.316879918807	478.072476461334	1034.376965087885	1425.876188543153	644.991484292636	1029.195765313612	1476.318550131153	462.827946874591	994.585204726539	928.349202106197	626.017720198556	981.446565492599	945.756355014932	349.621959302370	1055.210213940701	746.599911149093	598.348194997404	986.899821342095	632.079202080098	656.216533501315	1072.503008060856	589.349908480900	577.128872871532	1087.298403931439	499.121384525694	584.592499810742	1008.466394443419	731.797387907682	373.185554758647	913.253149177772	625.256472722675	305.250190221946	991.815658481369	532.118740867017	363.446206979343	977.282462324701	447.787392880391	360.667861866477	904.599364522161	397.587885288161	353.324622636650	764.485050984326	365.595621066281	296.144041160118	736.862730193557	239.785482457131	352.929833619542	1059.075812118125	409.381841888575	591.487896506549	990.231354219949	304.249938704040	653.554355143717	1034.644515492664	210.019364355946	590.890429968864	903.162473437608	44.888398010433	563.174559036568	1076.719395719162	98.938095621128	597.020549894167	987.546656614656	37.680001889888	635.358923824024	1195.948848028420	41.344447237067	621.436237462763	538.310401493846	190.547595110428	373.745520723723	599.942491947925	133.409066235481	305.453190173923	702.040830779490	137.100803696840	336.501392138569	773.843438551327	29.907285715567	329.780845390712	967.443436866099	1063.557263399960	201.746239368692	1210.415947533656	994.068039959163	241.837152295053	886.864618806746	1114.443110742568	771.431283969654	878.084240434043	851.925776167839	760.671213080170	
91	44.515000000000	775.288812962322	1019.686235185690	510.397800659636	1019.084005476353	1412.335036419877	313.436857006194	1106.521675177796	1331.644411874930	479.430352439617	1035.791845455404	1426.907223807246	647.119066457189	1028.958065886320	1477.790867539550	465.218671142875	994.283303610136	929.765591464414	628.000325760980	981.004760903695	946.955940311939	351.945876584430	1052.222212384399	745.793904463622	601.003084122018	982.419670946076	632.568540072493	658.304547383737	1067.033245282215	588.831972277577	578.695331534043	1080.652581481501	498.660534096903	586.099555895254	1013.430047286892	735.866055358260	376.642558284938	923.397157297671	626.497835521315	307.551981206968	1004.326648912324	535.416842043538	366.858997571475	991.040623451478	449.670613041779	363.320616431899	916.683297060561	399.552585544547	355.650115361922	775.610534179204	372.248347593610	298.128659817609	743.827053598830	247.239207941957	354.304117893636	1052.106048809704	409.320137384636	592.916430402042	982.816729379170	304.300150414075	654.523301354541	1027.090235848826	210.100216775174	591.629534702997	895.250289068215	45.111744255026	563.278393601548	1068.810736269597	98.875067973741	597.310074470941	979.610185329092	37.678991918901	635.395081630047	1188.000500335463	41.036129040777	621.620868676507	544.257702804557	206.629704187302	374.958503343133	603.107246560428	146.930135414524	306.147443643421	705.489853729786	145.110156365862	337.190115984946	771.384682659121	31.347241856624	329.166229640368	962.279566579413	1065.260465880281	205.895525409759	1200.916367675466	978.680088568920	244.219877946472	894.854141375642	1112.472977217203	775.417620048110	899.357805995200	849.899018768058	763.923154418591	
92	44.526500000000	774.701486040987	1021.332234868366	512.801980831922	1017.512215214831	1414.059368643100	315.472066554622	1106.181464604417	1332.819221144536	480.572618919455	1036.949841095403	1427.804633364966	649.025923738585	1028.463562605943	1479.122806460758	467.367503468899	993.765862284900	931.065509500733	629.965111541185	980.532210311310	948.122421322525	354.277549138855	1049.169106672906	745.142160229302	603.458932423364	977.967560810974	633.056568586035	660.314920947215	1061.696963045013	588.372274519866	580.295794832971	1074.106395466446	498.263266670131	587.647782907839	1018.189223111173	740.149296094427	380.401989753450	933.679068580143	628.195816561451	309.816552363055	1016.732062792666	539.301453927584	370.449956157155	1004.913182227897	452.197169991313	366.105977122298	929.104270807660	401.968201134374	357.982950823738	787.269626023619	378.985934284307	300.160253735515	751.668744516580	254.833265234359	355.780437761471	1045.252565181635	409.271570243947	594.318481309175	975.487231990622	304.378122558944	655.458721225725	1019.594818101146	210.186451303584	592.344021327301	887.302865830757	45.392576788322	563.364405280764	1060.898763420450	98.767274595965	597.561823119390	971.634578147002	37.704758371224	635.413664087318	1180.015782808860	40.705519191290	621.784616645789	551.426704916670	221.814414727255	376.416411628344	607.756233488227	160.211559990145	306.949824102885	710.195634478889	153.543903288504	337.936203092365	770.767854193277	34.065016935266	328.360709031277	957.373638603604	1066.672237671574	209.829854752514	1190.151734899716	962.578921070552	246.233608704358	903.059936127393	1110.452356001051	779.289282336277	921.349083855737	848.509395439579	767.195493838055	
